<svg id="_001-WEB-KAGAYAKI-LOGO" data-name="001-WEB-KAGAYAKI-LOGO" xmlns="http://www.w3.org/2000/svg" width="623.484" height="108.862" viewBox="0 0 623.484 108.862"><defs><style>.cls-1{fill:#ff85b7;}.cls-2{fill:#fff;}.cls-3{fill:none;stroke:#fff;stroke-linecap:round;stroke-miterlimit:10;stroke-width:2.5px;}</style></defs><path class="cls-1" d="M586.307,50.615V74.876h26.266l-3.831,7.114H578.919V50.615ZM615.4,41.769l8.026,18.514-6.475,3.466-9.486-21.98H579.922V34.746h24.534l-1.915-4.469H579.922V23.254H599.44L598.071,19.7l6.476-3.374,3.01,6.931h15.778v7.023h-12.86l2.007,4.469h10.853v7.023Z" transform="translate(-8.258 -6.194)"/><path class="cls-2" d="M581.563,43.861v24.26h26.266L604,75.235H574.175V43.861Zm29.094-8.847,8.025,18.515-6.475,3.465-9.486-21.98H575.178V27.991h24.534L597.8,23.522H575.178V16.5H594.7l-1.368-3.557L599.8,9.568l3.01,6.932h15.778v7.022h-12.86l2.007,4.469h10.853v7.023Z" transform="translate(-8.258 -6.194)"/><path class="cls-1" d="M548.23,24.622h13.589l-18.6,43.231-6.567-3.466,14.137-32.742H545.22l-9.211,21.433-5.655-3.01L538.2,31.645H525.611V83.631h-7.387V31.645h-5.746V24.622h5.746V16.6h7.387v8.026H541.3l3.283-7.752,5.654,3.01Z" transform="translate(-8.258 -6.194)"/><path class="cls-2" d="M543.486,17.868h13.589L538.47,61.1,531.9,57.633,546.04,24.89h-5.563l-9.212,21.433-5.654-3.009,7.842-18.424H520.867V76.877H513.48V24.89h-5.745V17.868h5.745V9.842h7.387v8.026h15.688l3.283-7.753,5.654,3.01Z" transform="translate(-8.258 -6.194)"/><path class="cls-1" d="M465.51,18.238l-4.195,9.85,12.678,5.472V81.99H459.035l-3.647-6.841h11.491V37.664l-8.208-3.557L437.6,83.357l-6.292-3.283,19.517-45.511h-15.14V27.632h18.149l5.473-12.768ZM473.9,28.27l5.837-3.1,10.214,23.713-5.837,3.1Zm6.11-11.035,5.2-2.827,5.746,13.5-5.2,2.736Zm13.863-4.287,5.564,12.86-5.2,2.827-5.472-12.951Z" transform="translate(-8.258 -6.194)"/><path class="cls-2" d="M460.767,11.484l-4.2,9.849,12.678,5.472v48.43H454.291l-3.647-6.84h11.491V30.91l-8.208-3.557L432.858,76.6l-6.292-3.283,19.517-45.511h-15.14V20.877h18.15l5.472-12.768Zm8.391,10.032,5.837-3.1,10.214,23.713-5.837,3.1Zm6.111-11.036,5.2-2.827,5.746,13.5-5.2,2.736Zm13.862-4.286L494.7,19.053l-5.2,2.828L484.024,8.93Z" transform="translate(-8.258 -6.194)"/><path class="cls-1" d="M388.354,18.329l-4.195,9.759,12.677,5.563V82.08H381.879l-3.739-6.84h11.582V37.756l-8.117-3.649L360.446,83.448l-6.293-3.283,19.518-45.51h-15.14V27.723H376.68l5.382-12.768Zm14.228,6.932L412.8,48.973l-5.837,3.1L396.745,28.362Z" transform="translate(-8.258 -6.194)"/><path class="cls-2" d="M383.61,11.575l-4.195,9.758L392.092,26.9V75.326H377.135L373.4,68.485h11.582V31l-8.117-3.648L355.7,76.694l-6.293-3.283L368.927,27.9h-15.14V20.968h18.149L377.318,8.2Zm14.228,6.931,10.215,23.713-5.837,3.1L392,21.607Z" transform="translate(-8.258 -6.194)"/><path class="cls-2" d="M123.508,37.544V28.629h5.076v52.32h-5.076V41.058l-1.626,8.4-4.426-2.278,1.888-9.631Zm9.566-6.052v8.85h-3.9v-8.85Zm15.553,43.275h9.111v5.4H133.6v-5.4h9.566v-16.4h-6.377V53.032h6.377V43.661H138.28l-2.147,7.874-5.011-2.668,5.336-19.457h5.727l-2.473,8.915h3.449v-9.7h5.466v9.7H156.5v5.336h-7.874v9.371h5.922v5.336h-5.922Z" transform="translate(-8.258 -6.194)"/><path class="cls-2" d="M192.417,62.269l2.51,4.7-19.694,11v-6.05l1.931-1.094V40.967h4.763V68.191l1.673-.966V37.041h-8.045V32.15h19.758v4.891h-6.629v6.951h4.827v4.7h-4.827v15.7Zm22.59,16.669-4.634,2.51-7.4-16.926-6.951,16.99-4.441-2.381,8.56-20.916-2.574-5.921-.9,2.317-4.312-2.317,9.46-23.169h5.213l-3.99,9.847h11.391v5.02H212.69l-6.243,15.317Zm-14.03-34.946-2.832,6.886,3.089-1.673,2.188,5.02,4.183-10.233Z" transform="translate(-8.258 -6.194)"/><path class="cls-2" d="M231.354,78.3l6.95-26.966,5.085,2.7L236.438,81Zm11.327-47.432v5.02H232.19v-5.02Zm0,9.589v5.02H232.19v-5.02ZM266.557,55.19l-1.287-3.861-20.208,2.188V48.368l1.673-.193,4.827-18.986h5.47L252.4,47.6l11.2-1.223-2.767-8.045h5.6L271.32,52.68ZM246.993,80.934V55.512h21.56V80.934ZM252.27,60.21V76.235h10.812V60.21Z" transform="translate(-8.258 -6.194)"/><path class="cls-2" d="M296.227,58.215V56.284l-7.916,2.446V54.675l7.916-2.446V49.655h2.316l.644-1.03h-9.332v-3.41h16.089l-3.153,4.955,3.282-1.03,1.867,3.476L300.989,54.8v7.144h-5.728l-2-3.733Zm11.391-26.837v3.6H288.825v-3.6h6.887V29.189h5.02v2.189Zm3.218,38.357v6.436H327.7v4.7H288.825v-4.7h16.862V69.735H293.4V64.973h12.292V59.759h5.149v5.214h12.292v4.762Zm-4.5-25.808H290.113V36.2h16.218ZM294.3,38.907V41.16h7.916V38.907Zm31.6,15.318h2.381v4.119h-7.272V40.581l-4.313,6.886,3.862,6.114-3.926,2.06-2.574-4.055-4.7,7.337-3.862-2.06,5.985-9.332-4.054-6.307,3.99-2.059,2.639,4.247,3.024-4.826H308.84V34.338h8.238l3.283-5.149h4.891l-3.282,5.149H325.9Z" transform="translate(-8.258 -6.194)"/><path class="cls-3" d="M72.664,78.492C60.329,83.477,43.1,88.5,24.014,87.632c-15.638-.714-23.7-12,2.512-12.061,27.226-.061,134.512,38.235,264.578,38.235s301.45-20.137,339.388-30.033" transform="translate(-8.258 -6.194)"/><path class="cls-2" d="M104.506,39.768l-6.919.174H80.779c-.84,0,.809-4.22,1.053-5.111.778-2.844,1.556-6.573,2.334-9.589l-.262-.406-6.955-1.622-.471.348c-1.008,3.936-2.016,8.509-3.065,12.1-.168.573-1.4,4.28-1.943,4.28H65.636l-7.67-.174L56.1,39.343l1.5,3.512.365.405,8.42-.173h2.7a1.375,1.375,0,0,1,1.175,1.872,169.052,169.052,0,0,1-6.485,16.262l.262.579,6.85,2.26.418-.29c.3-.7.619-1.4.92-2.1a1.206,1.206,0,0,1,1.616-.684c1.84.862,3.66,1.752,5.475,2.69l1.545,1.156c-5.147,9.38-8.284,14.916-19.675,16.249-1.649.21-1.713.9-1.713,1.255s.255.422,1.142.422c11.354,0,13.306-2.108,19.459-6.465,2.6-1.9,7.97-6.817,7.97-6.817l-.151-.1a1.132,1.132,0,0,1,.812.174c3.962,2.651,7.805,5.606,11.832,8.817l.628-.174,4.445-6.489-.1-.579a121.38,121.38,0,0,0-12.095-8.365A1.451,1.451,0,0,1,92.9,60.9a45.869,45.869,0,0,0,4.2-16.545,1.309,1.309,0,0,1,1.243-1.269l8.419.173.366-.405V39.343ZM85.431,55.7a16.316,16.316,0,0,0-2.265,7.159c-.656-2.394-1.8-4.96-3.3-6.3a11.092,11.092,0,0,0-6.2-2.222,13.373,13.373,0,0,0,5.715-4.061,16.3,16.3,0,0,0,2.266-7.159c.655,2.394,1.8,4.96,3.294,6.3a11.105,11.105,0,0,0,6.2,2.222A13.371,13.371,0,0,0,85.431,55.7Z" transform="translate(-8.258 -6.194)"/><path class="cls-3" d="M72.664,78.492C60.329,83.477,43.1,88.5,24.014,87.632c-15.638-.714-23.7-12,2.512-12.061,27.226-.061,134.512,38.235,264.578,38.235s301.45-20.137,339.388-30.033" transform="translate(-8.258 -6.194)"/></svg>